# xmcd
#
# Track frame offsets: 
#        150
#        23310
#        44047
#        62495
#        79417
#        99825
#        118457
#        131857
#        147697
#        163357
#        180192
#        199760
#        219190
#        237057
#        256160
#        273630
#
# Disc length: 3943 seconds
#
# Revision: 8
# Processed by: cddbd v1.5.2PL0 Copyright (c) Steve Scherf et al.
# Submitted via: ExactAudioCopyFreeDBPlugin 1.0
#
DISCID=e80f6510
DTITLE=Leann Rimes - Sittin' On Top Of The World
DYEAR=1998
DGENRE=Country
TTITLE0=How Do I Live (Extended Mix)
TTITLE1=Commitment
TTITLE2=Looking Through Your Eyes
TTITLE3=Undeniable
TTITLE4=Feels Like Home
TTITLE5=Surrender
TTITLE6=These Arms Of Mine
TTITLE7=Nothin' New Under The Moon
TTITLE8=When Am I Gonna Get Over You
TTITLE9=Rock Me
TTITLE10=More Than Anyone Deserves
TTITLE11=Insensitive
TTITLE12=All The Lovin' And Hurtin'
TTITLE13=Sittin' On Top Of The World
TTITLE14=The Heart Never Forgets
TTITLE15=Purple Rain
EXTD=
EXTT0=
EXTT1=
EXTT2=
EXTT3=
EXTT4=
EXTT5=
EXTT6=
EXTT7=
EXTT8=
EXTT9=
EXTT10=
EXTT11=
EXTT12=
EXTT13=
EXTT14=
EXTT15=
PLAYORDER=
